<?xml version="1.0" encoding="UTF-8" standalone="no"?>
<!-- Created with Inkscape (http://www.inkscape.org/) -->

<svg
   width="10.993079mm"
   height="10.586503mm"
   viewBox="0 0 10.993079 10.586503"
   version="1.1"
   id="svg1"
   xmlns:inkscape="http://www.inkscape.org/namespaces/inkscape"
   xmlns:sodipodi="http://sodipodi.sourceforge.net/DTD/sodipodi-0.dtd"
   xmlns:xlink="http://www.w3.org/1999/xlink"
   xmlns="http://www.w3.org/2000/svg"
   xmlns:svg="http://www.w3.org/2000/svg">
  <sodipodi:namedview
     id="namedview1"
     pagecolor="#505050"
     bordercolor="#eeeeee"
     borderopacity="1"
     inkscape:showpageshadow="0"
     inkscape:pageopacity="0"
     inkscape:pagecheckerboard="0"
     inkscape:deskcolor="#505050"
     inkscape:document-units="mm">
    <inkscape:page
       x="0"
       y="0"
       width="10.993079"
       height="10.586503"
       id="page2"
       margin="0"
       bleed="0" />
  </sodipodi:namedview>
  <defs
     id="defs1">
    <filter
       inkscape:collect="always"
       style="color-interpolation-filters:sRGB"
       id="filter257"
       x="-0.13945198"
       y="-0.14637573"
       width="1.278904"
       height="1.2927515">
      <feGaussianBlur
         inkscape:collect="always"
         stdDeviation="0.85511392"
         id="feGaussianBlur257" />
    </filter>
    <radialGradient
       inkscape:collect="always"
       xlink:href="#linearGradient257"
       id="radialGradient285"
       gradientUnits="userSpaceOnUse"
       gradientTransform="matrix(1,0,0,0.9526988,0,-125.74821)"
       cx="-1537.8212"
       cy="-2658.4568"
       fx="-1537.8212"
       fy="-2658.4568"
       r="7.3583512" />
    <linearGradient
       id="linearGradient257"
       inkscape:collect="always">
      <stop
         style="stop-color:#e44e4e;stop-opacity:1;"
         offset="0"
         id="stop257" />
      <stop
         style="stop-color:#885151;stop-opacity:1;"
         offset="1"
         id="stop258" />
    </linearGradient>
    <radialGradient
       inkscape:collect="always"
       xlink:href="#linearGradient313"
       id="radialGradient317"
       gradientUnits="userSpaceOnUse"
       gradientTransform="matrix(1,0,0,0.9526988,0,-125.74821)"
       cx="-1537.8212"
       cy="-2658.4568"
       fx="-1537.8212"
       fy="-2658.4568"
       r="7.3583512" />
    <linearGradient
       id="linearGradient313"
       inkscape:collect="always">
      <stop
         style="stop-color:#97bca7;stop-opacity:1;"
         offset="0"
         id="stop312" />
      <stop
         style="stop-color:#295d42;stop-opacity:1;"
         offset="1"
         id="stop313" />
    </linearGradient>
    <radialGradient
       inkscape:collect="always"
       xlink:href="#linearGradient338"
       id="radialGradient337"
       gradientUnits="userSpaceOnUse"
       gradientTransform="matrix(1,0,0,0.9526988,0,-125.74821)"
       cx="-1537.8212"
       cy="-2658.4568"
       fx="-1537.8212"
       fy="-2658.4568"
       r="7.3583512" />
    <linearGradient
       id="linearGradient338"
       inkscape:collect="always">
      <stop
         style="stop-color:#f2cf8b;stop-opacity:1;"
         offset="0"
         id="stop337" />
      <stop
         style="stop-color:#9b793c;stop-opacity:1;"
         offset="1"
         id="stop338" />
    </linearGradient>
  </defs>
  <g
     inkscape:label="Layer 1"
     inkscape:groupmode="layer"
     id="layer1"
     transform="translate(-133.36791,-65.875432)">
    <g
       id="g285"
       transform="translate(1470.7748,2741.3714)"
       inkscape:export-filename="rune-a.svg"
       inkscape:export-xdpi="96"
       inkscape:export-ydpi="96">
      <g
         id="g284"
         transform="matrix(0.58407847,0,0,0.58407847,-555.16695,-1111.9555)">
        <path
           sodipodi:type="star"
           style="opacity:0.7725;fill:#868686;fill-opacity:1;stroke:none;stroke-width:0.222;stroke-dasharray:none;stroke-dashoffset:0;stroke-opacity:1"
           id="path281"
           inkscape:flatsided="true"
           sodipodi:sides="5"
           sodipodi:cx="-1537.8085"
           sodipodi:cy="-2657.73"
           sodipodi:r1="7.7371378"
           sodipodi:r2="6.2594757"
           sodipodi:arg1="0.93716332"
           sodipodi:arg2="1.5654818"
           inkscape:rounded="0"
           inkscape:randomized="0"
           d="m -1533.2275,-2651.4948 -9.0954,0.048 -2.8566,-8.6353 7.3299,-5.3853 7.3868,5.307 z"
           inkscape:transform-center-x="0.012706361"
           inkscape:transform-center-y="-0.726736"
           transform="translate(189.72879,-9.4164524)" />
        <path
           sodipodi:type="star"
           style="opacity:0.7725;fill:#000000;fill-opacity:0.711172;stroke:none;stroke-width:0.222;stroke-dasharray:none;stroke-dashoffset:0;stroke-opacity:1;filter:url(#filter257)"
           id="path282"
           inkscape:flatsided="true"
           sodipodi:sides="5"
           sodipodi:cx="-1537.8085"
           sodipodi:cy="-2657.73"
           sodipodi:r1="7.7371378"
           sodipodi:r2="6.2594757"
           sodipodi:arg1="0.93716332"
           sodipodi:arg2="1.5654818"
           inkscape:rounded="0"
           inkscape:randomized="0"
           d="m -1533.2275,-2651.4948 -9.0954,0.048 -2.8566,-8.6353 7.3299,-5.3853 7.3868,5.307 z"
           inkscape:transform-center-x="0.012706361"
           inkscape:transform-center-y="-0.726736"
           transform="translate(189.72879,-9.4164524)" />
        <path
           sodipodi:type="star"
           style="opacity:0.7725;fill:url(#radialGradient285);fill-opacity:1;stroke:none;stroke-width:0.222;stroke-dasharray:none;stroke-dashoffset:0;stroke-opacity:1"
           id="path283"
           inkscape:flatsided="true"
           sodipodi:sides="5"
           sodipodi:cx="-1537.8085"
           sodipodi:cy="-2657.73"
           sodipodi:r1="7.7371378"
           sodipodi:r2="6.2594757"
           sodipodi:arg1="0.93716332"
           sodipodi:arg2="1.5654818"
           inkscape:rounded="0"
           inkscape:randomized="0"
           d="m -1533.2275,-2651.4948 -9.0954,0.048 -2.8566,-8.6353 7.3299,-5.3853 7.3868,5.307 z"
           inkscape:transform-center-x="0.012706361"
           inkscape:transform-center-y="-0.726736"
           transform="translate(189.72879,-9.4164524)" />
        <path
           style="fill:#ffffff;stroke-width:0.38156"
           d="m -1348.4481,-2662.6202 c -0.1,-0.1617 -0.015,-2.9866 0.092,-3.0638 0.064,-0.046 0.053,-0.075 -0.029,-0.076 -0.073,0 -0.1041,-0.047 -0.07,-0.1025 0.034,-0.056 0.018,-0.101 -0.036,-0.101 -0.054,0 -0.1137,0.043 -0.1322,0.096 -0.018,0.053 -0.4872,0.5567 -1.0415,1.1203 -1.0344,1.0518 -1.1364,1.1005 -1.4061,0.6729 -0.084,-0.1339 -0.026,-0.2484 0.2913,-0.5738 0.2183,-0.2235 0.4421,-0.4064 0.4973,-0.4064 0.055,0 -0.09,0.1888 -0.3233,0.4195 -0.2331,0.2308 -0.4238,0.4529 -0.4238,0.4937 0,0.041 0.6133,-0.5535 1.3629,-1.3207 0.7496,-0.7671 1.3629,-1.4407 1.3629,-1.4969 0,-0.056 -0.4202,0.3414 -0.9338,0.8834 -0.5136,0.542 -0.9542,0.9693 -0.9791,0.9496 -0.025,-0.02 0.3515,-0.4344 0.8363,-0.9215 l 0.8816,-0.8857 v -2.4047 c 0,-2.3694 0.087,-3.0037 0.2027,-1.4883 l 0.059,0.7744 0.017,-0.8834 c 0.012,-0.6347 -0.018,-0.8833 -0.1059,-0.8833 -0.077,0 -0.06,-0.063 0.047,-0.17 0.1593,-0.1592 0.1828,-0.1582 0.375,0.016 0.195,0.1765 0.2053,0.3045 0.2098,2.6181 v 2.4324 l 1.3536,1.4025 1.3536,1.4024 -0.2613,0.2055 -0.2613,0.2055 -1.0971,-1.1192 -1.097,-1.1193 v 1.7071 1.7071 h -0.3474 c -0.191,0 -0.3722,-0.04 -0.4027,-0.09 z m 0.1102,-0.5415 c -0.028,-0.069 -0.051,-0.013 -0.051,0.1262 0,0.1388 0.023,0.1956 0.051,0.1262 0.028,-0.069 0.028,-0.183 0,-0.2524 z m 0.337,-8.7578 c 0,-0.055 -0.045,-0.101 -0.101,-0.101 -0.056,0 -0.1009,0.045 -0.1009,0.101 0,0.056 0.045,0.101 0.1009,0.101 0.055,0 0.101,-0.045 0.101,-0.101 z m -1.8005,3.7835 c -0.5645,-0.5843 -1.0262,-1.1188 -1.0262,-1.1879 0,-0.1397 2.0059,-1.9357 2.0797,-1.8619 0.026,0.026 0.065,0.1429 0.088,0.2606 0.032,0.1639 -0.1323,0.3652 -0.7016,0.8618 l -0.7429,0.6479 0.2264,0.2128 c 0.1246,0.117 0.2645,0.1782 0.3109,0.1361 0.046,-0.042 0.054,-0.024 0.018,0.041 -0.038,0.066 0.1365,0.3122 0.403,0.5675 0.4127,0.3956 0.4729,0.5073 0.494,0.9176 0.013,0.257 -0.01,0.4673 -0.049,0.4673 -0.04,0 -0.535,-0.4781 -1.0994,-1.0623 z m 2.3467,0.6957 c 0.01,-0.3193 0.1089,-0.4638 0.7836,-1.1204 l 0.7746,-0.7538 -0.3706,-0.3182 c -0.9653,-0.8285 -1.2308,-1.114 -1.13,-1.2147 0.056,-0.057 0.1029,-0.1847 0.1029,-0.2846 0,-0.1 0.024,-0.1818 0.052,-0.1818 0.1317,0 2.0174,1.7436 2.0174,1.8653 0,0.1086 -2.1118,2.3748 -2.213,2.3748 -0.014,0 -0.022,-0.1649 -0.017,-0.3666 z m 0.6148,-1.2487 c 1.0274,-1.0353 1.0283,-0.8979 0,0.1753 -0.2783,0.2906 -0.5502,0.5291 -0.6042,0.5299 -0.054,0 0.2173,-0.3165 0.603,-0.7052 z m -3.7858,-1.2243 c 0.3262,-0.3149 1.3266,-1.1714 1.7414,-1.491 0.097,-0.075 0.1767,-0.095 0.1767,-0.045 0,0.05 -0.1249,0.168 -0.2776,0.2614 -0.1527,0.093 -0.5275,0.4021 -0.8329,0.6862 -0.3054,0.284 -0.6915,0.6093 -0.8581,0.7228 -0.2796,0.1905 -0.2757,0.1801 0.05,-0.1348 z m 3.1295,-1.5014 c 0,-0.056 0.045,-0.101 0.101,-0.101 0.055,0 0.101,0.045 0.101,0.101 0,0.055 -0.045,0.1009 -0.101,0.1009 -0.056,0 -0.101,-0.045 -0.101,-0.1009 z"
           id="path284" />
      </g>
    </g>
    <g
       id="g338"
       transform="translate(693.24936,2935.095)">
      <g
         id="g337"
         transform="translate(25.103078,-23.235864)">
        <g
           id="g336"
           transform="translate(773.19477,-170.50364)">
          <g
             id="g335"
             transform="matrix(0.58407847,0,0,0.58407847,-554.89655,-1111.9396)">
            <path
               sodipodi:type="star"
               style="opacity:0.7725;fill:#868686;fill-opacity:1;stroke:none;stroke-width:0.222;stroke-dasharray:none;stroke-dashoffset:0;stroke-opacity:1"
               id="path333"
               inkscape:flatsided="true"
               sodipodi:sides="5"
               sodipodi:cx="-1537.8085"
               sodipodi:cy="-2657.73"
               sodipodi:r1="7.7371378"
               sodipodi:r2="6.2594757"
               sodipodi:arg1="0.93716332"
               sodipodi:arg2="1.5654818"
               inkscape:rounded="0"
               inkscape:randomized="0"
               d="m -1533.2275,-2651.4948 -9.0954,0.048 -2.8566,-8.6353 7.3299,-5.3853 7.3868,5.307 z"
               inkscape:transform-center-x="0.012706361"
               inkscape:transform-center-y="-0.726736"
               transform="translate(189.72879,-9.4164524)" />
            <path
               sodipodi:type="star"
               style="opacity:0.7725;fill:#000000;fill-opacity:0.711172;stroke:none;stroke-width:0.222;stroke-dasharray:none;stroke-dashoffset:0;stroke-opacity:1;filter:url(#filter257)"
               id="path334"
               inkscape:flatsided="true"
               sodipodi:sides="5"
               sodipodi:cx="-1537.8085"
               sodipodi:cy="-2657.73"
               sodipodi:r1="7.7371378"
               sodipodi:r2="6.2594757"
               sodipodi:arg1="0.93716332"
               sodipodi:arg2="1.5654818"
               inkscape:rounded="0"
               inkscape:randomized="0"
               d="m -1533.2275,-2651.4948 -9.0954,0.048 -2.8566,-8.6353 7.3299,-5.3853 7.3868,5.307 z"
               inkscape:transform-center-x="0.012706361"
               inkscape:transform-center-y="-0.726736"
               transform="translate(189.72879,-9.4164524)" />
            <path
               sodipodi:type="star"
               style="opacity:0.7725;fill:url(#radialGradient337);fill-opacity:1;stroke:none;stroke-width:0.222;stroke-dasharray:none;stroke-dashoffset:0;stroke-opacity:1"
               id="path335"
               inkscape:flatsided="true"
               sodipodi:sides="5"
               sodipodi:cx="-1537.8085"
               sodipodi:cy="-2657.73"
               sodipodi:r1="7.7371378"
               sodipodi:r2="6.2594757"
               sodipodi:arg1="0.93716332"
               sodipodi:arg2="1.5654818"
               inkscape:rounded="0"
               inkscape:randomized="0"
               d="m -1533.2275,-2651.4948 -9.0954,0.048 -2.8566,-8.6353 7.3299,-5.3853 7.3868,5.307 z"
               inkscape:transform-center-x="0.012706361"
               inkscape:transform-center-y="-0.726736"
               transform="translate(189.72879,-9.4164524)" />
          </g>
        </g>
      </g>
      <path
         style="fill:#ffffff;stroke-width:0.257138"
         d="m -544.15509,-2860.6836 c 0.0128,-0.2023 2.5e-4,-0.3536 -0.0277,-0.3362 -0.0759,0.047 -0.0617,-0.2374 0.0194,-0.389 0.0482,-0.09 0.0483,-0.1316 2.5e-4,-0.1316 -0.0921,0 -0.0624,-1.9206 0.0308,-1.9872 0.0437,-0.031 0.0404,-0.075 -0.009,-0.125 -0.0571,-0.057 -0.17573,0.047 -0.46157,0.4054 -0.2116,0.2652 -0.4093,0.4822 -0.43933,0.4822 -0.03,0 -0.11066,-0.062 -0.17918,-0.1377 -0.10272,-0.1135 -0.10879,-0.1523 -0.0346,-0.2211 0.0724,-0.067 0.0791,-0.064 0.0343,0.018 -0.0358,0.066 -0.003,0.056 0.0921,-0.027 0.1754,-0.1539 0.20089,-0.3029 0.0287,-0.1679 -0.10774,0.085 -0.11024,0.082 -0.0263,-0.025 0.051,-0.065 0.11563,-0.1042 0.1436,-0.087 0.028,0.017 0.19288,-0.1515 0.36648,-0.375 0.31226,-0.4021 0.37961,-0.5219 0.2476,-0.4403 -0.11074,0.068 -0.0775,-0.01 0.0471,-0.1107 0.0993,-0.081 0.10684,-0.079 0.055,0.01 -0.0519,0.088 -0.0443,0.089 0.055,0.01 0.12235,-0.099 0.16199,-0.2498 0.0471,-0.1788 -0.0406,0.025 -0.068,-0.057 -0.068,-0.2041 0,-0.1468 0.0275,-0.2292 0.068,-0.2041 0.0374,0.023 0.068,0.01 0.068,-0.03 0,-0.04 -0.0306,-0.072 -0.068,-0.072 -0.0374,0 -0.068,-0.1054 -0.068,-0.2341 0,-0.1288 0.0306,-0.2531 0.068,-0.2762 0.0851,-0.053 0.0896,-0.3529 0.006,-0.4045 -0.054,-0.033 -0.96854,1.0679 -1.42871,1.7205 l -0.16036,0.2274 -0.17597,-0.176 c -0.17271,-0.1727 -0.17356,-0.1781 -0.0456,-0.2954 0.12446,-0.1141 0.12624,-0.1141 0.0393,0 -0.05,0.066 -0.079,0.1308 -0.0643,0.1431 0.0147,0.012 0.13132,-0.1185 0.25918,-0.2908 0.12786,-0.1722 0.17378,-0.2676 0.10205,-0.2119 -0.0717,0.056 -5.1e-4,-0.032 0.15815,-0.1945 0.15871,-0.1627 0.26862,-0.3308 0.24422,-0.3735 -0.0244,-0.043 -0.019,-0.054 0.0121,-0.026 0.0621,0.056 0.30558,-0.1351 0.30558,-0.2402 0,-0.036 -0.0536,-0.024 -0.11906,0.026 -0.0969,0.075 -0.095,0.064 0.0105,-0.06 0.14175,-0.1661 0.21298,-0.2012 0.13564,-0.067 -0.0863,0.15 0.0201,0.027 0.30333,-0.3515 0.15178,-0.2026 0.25725,-0.3987 0.23438,-0.4357 -0.0234,-0.038 -0.007,-0.046 0.0374,-0.019 0.0442,0.027 0.097,0 0.11985,-0.057 0.0239,-0.062 0.12173,-0.1064 0.23584,-0.1064 0.16601,0 0.2719,0.099 0.71176,0.6633 1.09383,1.4042 1.32379,1.7119 1.32379,1.7714 0,0.034 -0.0657,0.1198 -0.14601,0.1911 -0.10577,0.094 -0.15426,0.106 -0.17595,0.044 -0.0164,-0.047 -0.1268,-0.203 -0.24519,-0.3464 -0.11838,-0.1433 -0.44486,-0.5558 -0.7255,-0.9166 l -0.51026,-0.6559 -0.0193,0.7509 -0.0193,0.7509 0.4699,0.5956 c 0.67572,0.8567 0.68209,0.8688 0.51943,0.9918 -0.0739,0.056 -0.15033,0.1025 -0.16985,0.1037 -0.0195,0 -0.2032,-0.213 -0.40821,-0.476 l -0.37272,-0.4782 -0.0182,1.7028 -0.0182,1.7028 h -0.20923 -0.20924 z m -0.0734,-5.0466 c 0.003,-0.079 0.0194,-0.095 0.0411,-0.041 0.0197,0.049 0.0172,0.1078 -0.005,0.1304 -0.0226,0.023 -0.0387,-0.018 -0.0357,-0.089 z"
         id="path337"
         sodipodi:nodetypes="csssssssssssssssssssssssssssscsscssssssssssssscssssssscccsscsccccccsssss" />
    </g>
    <g
       id="g317"
       transform="translate(707.95797,2911.8592)">
      <g
         id="g316"
         transform="translate(773.19477,-170.50364)">
        <g
           id="g315"
           transform="matrix(0.58407847,0,0,0.58407847,-554.89655,-1111.9396)">
          <path
             sodipodi:type="star"
             style="opacity:0.7725;fill:#868686;fill-opacity:1;stroke:none;stroke-width:0.222;stroke-dasharray:none;stroke-dashoffset:0;stroke-opacity:1"
             id="path313"
             inkscape:flatsided="true"
             sodipodi:sides="5"
             sodipodi:cx="-1537.8085"
             sodipodi:cy="-2657.73"
             sodipodi:r1="7.7371378"
             sodipodi:r2="6.2594757"
             sodipodi:arg1="0.93716332"
             sodipodi:arg2="1.5654818"
             inkscape:rounded="0"
             inkscape:randomized="0"
             d="m -1533.2275,-2651.4948 -9.0954,0.048 -2.8566,-8.6353 7.3299,-5.3853 7.3868,5.307 z"
             inkscape:transform-center-x="0.012706361"
             inkscape:transform-center-y="-0.726736"
             transform="translate(189.72879,-9.4164524)" />
          <path
             sodipodi:type="star"
             style="opacity:0.7725;fill:#000000;fill-opacity:0.711172;stroke:none;stroke-width:0.222;stroke-dasharray:none;stroke-dashoffset:0;stroke-opacity:1;filter:url(#filter257)"
             id="path314"
             inkscape:flatsided="true"
             sodipodi:sides="5"
             sodipodi:cx="-1537.8085"
             sodipodi:cy="-2657.73"
             sodipodi:r1="7.7371378"
             sodipodi:r2="6.2594757"
             sodipodi:arg1="0.93716332"
             sodipodi:arg2="1.5654818"
             inkscape:rounded="0"
             inkscape:randomized="0"
             d="m -1533.2275,-2651.4948 -9.0954,0.048 -2.8566,-8.6353 7.3299,-5.3853 7.3868,5.307 z"
             inkscape:transform-center-x="0.012706361"
             inkscape:transform-center-y="-0.726736"
             transform="translate(189.72879,-9.4164524)" />
          <path
             sodipodi:type="star"
             style="opacity:0.7725;fill:url(#radialGradient317);fill-opacity:1;stroke:none;stroke-width:0.222;stroke-dasharray:none;stroke-dashoffset:0;stroke-opacity:1"
             id="path315"
             inkscape:flatsided="true"
             sodipodi:sides="5"
             sodipodi:cx="-1537.8085"
             sodipodi:cy="-2657.73"
             sodipodi:r1="7.7371378"
             sodipodi:r2="6.2594757"
             sodipodi:arg1="0.93716332"
             sodipodi:arg2="1.5654818"
             inkscape:rounded="0"
             inkscape:randomized="0"
             d="m -1533.2275,-2651.4948 -9.0954,0.048 -2.8566,-8.6353 7.3299,-5.3853 7.3868,5.307 z"
             inkscape:transform-center-x="0.012706361"
             inkscape:transform-center-y="-0.726736"
             transform="translate(189.72879,-9.4164524)" />
        </g>
      </g>
      <path
         style="fill:#ffffff;fill-opacity:1;stroke-width:0.210799"
         d="m -570.70264,-2837.8475 c -0.10664,-0.1179 -0.12258,-0.2022 -0.0271,-0.1432 0.0454,0.028 0.053,0.01 0.0249,-0.065 -0.0222,-0.058 -0.0216,-0.086 10e-4,-0.064 0.0425,0.043 0.63361,-0.5064 0.63361,-0.5885 0,-0.025 -0.11671,0.075 -0.25936,0.2212 -0.14265,0.1466 -0.22553,0.2164 -0.18418,0.155 0.13554,-0.2011 0.40832,-0.4741 0.47372,-0.4741 0.0352,0 0.11189,-0.055 0.17033,-0.1211 0.0657,-0.075 0.0743,-0.1024 0.0226,-0.072 -0.046,0.027 0.0356,-0.087 0.18127,-0.2544 0.30653,-0.351 0.27897,-0.1335 0.28882,-2.28 0.006,-1.2304 0.0182,-1.4243 0.0953,-1.4729 0.0488,-0.031 0.12983,-0.04 0.18001,-0.021 0.0817,0.031 0.0912,0.2133 0.0912,1.7444 v 1.7095 l 0.1767,0.2025 c 0.0972,0.1115 0.42347,0.4649 0.72506,0.7854 0.3016,0.3205 0.54757,0.5966 0.54661,0.6135 -10e-4,0.017 -0.0607,0.074 -0.13286,0.126 -0.12965,0.094 -0.13474,0.091 -0.45838,-0.2514 -0.18,-0.1907 -0.43446,-0.4657 -0.56546,-0.6112 -0.13101,-0.1455 -0.25022,-0.2645 -0.26493,-0.2645 -0.0147,0 -0.0267,0.2777 -0.0267,0.6171 v 0.617 l -0.18126,-0.017 -0.18127,-0.017 0.005,-0.5995 c 0.003,-0.3298 -0.0136,-0.5996 -0.0362,-0.5996 -0.0225,0 -0.28677,0.2761 -0.58716,0.6135 -0.3004,0.3374 -0.56259,0.6135 -0.58264,0.6135 -0.02,0 -0.078,-0.046 -0.12876,-0.102 z m 1.41359,-1.7155 c 0,-0.059 -0.0578,0 -0.25015,0.2418 l -0.20781,0.265 0.22898,-0.2419 c 0.12594,-0.133 0.22898,-0.2522 0.22898,-0.2649 z m -0.4752,-0.2601 c -0.15323,-0.1846 -0.57089,-0.6392 -1.02383,-1.1144 l -0.25148,-0.2638 0.11521,-0.1266 c 0.0634,-0.07 0.1026,-0.1615 0.0872,-0.2041 -0.016,-0.044 -0.003,-0.062 0.0303,-0.041 0.065,0.04 0.40238,-0.2207 0.40238,-0.3111 0,-0.034 -0.0409,-0.027 -0.0976,0.016 -0.0537,0.041 0.003,-0.034 0.12549,-0.1657 0.1227,-0.1319 0.28108,-0.2624 0.35195,-0.2901 0.0709,-0.028 0.11543,-0.072 0.099,-0.099 -0.0271,-0.044 0.3148,-0.3981 0.38413,-0.3981 0.0161,0 0.0294,0.1039 0.0294,0.2309 0,0.2169 -0.0327,0.2641 -0.53846,0.779 l -0.53846,0.548 0.53846,0.5815 c 0.49901,0.5389 0.53846,0.5983 0.53846,0.8106 0,0.126 -0.0229,0.2291 -0.0508,0.2291 -0.028,0 -0.11853,-0.082 -0.20129,-0.1813 z m -0.35359,-2.3456 c 0.0637,-0.1216 0.0634,-0.1217 -0.0555,-0.016 -0.0658,0.059 -0.11967,0.129 -0.11967,0.1567 0,0.079 0.10404,-0.01 0.17514,-0.1405 z m 1.21921,2.3068 c 0,-0.152 0.0388,-0.2605 0.12549,-0.3513 0.0875,-0.091 0.1005,-0.097 0.043,-0.017 -0.0454,0.063 0.0133,0.026 0.13034,-0.081 0.11705,-0.1073 0.26558,-0.2705 0.33006,-0.3625 l 0.11724,-0.1673 -0.13604,0.1107 c -0.10444,0.085 -0.098,0.069 0.0278,-0.07 0.1695,-0.1866 0.2362,-0.2318 0.16342,-0.1106 -0.0288,0.048 -0.0126,0.046 0.0519,-0.01 0.0516,-0.042 0.0774,-0.1045 0.0575,-0.1394 -0.0199,-0.035 -0.0157,-0.045 0.009,-0.022 0.0251,0.023 0.0787,0.014 0.11902,-0.02 0.0606,-0.05 0.06,-0.087 -0.003,-0.2088 -0.0421,-0.081 -0.13009,-0.1965 -0.19562,-0.2558 -0.1191,-0.1077 -0.11921,-0.1077 -0.43957,0.2093 -0.17624,0.1744 -0.33854,0.3171 -0.36066,0.3171 -0.0221,0 -0.0402,-0.097 -0.0402,-0.2144 0,-0.1538 0.0355,-0.2446 0.12549,-0.3207 l 0.12549,-0.1063 -0.10333,0.1223 c -0.0568,0.067 -0.0902,0.1551 -0.0741,0.1952 0.0212,0.053 0.0304,0.05 0.0336,-0.012 0.002,-0.047 0.0962,-0.1797 0.20833,-0.2952 0.15298,-0.1575 0.188,-0.2259 0.14017,-0.2737 -0.0478,-0.048 -0.0962,-0.033 -0.19358,0.058 -0.22193,0.2085 -0.25467,0.1609 -0.25173,-0.3661 10e-4,-0.2684 0.0151,-0.5089 0.0302,-0.5344 0.0151,-0.026 0.0973,0.021 0.18256,0.1022 0.0999,0.096 0.16855,0.1268 0.19294,0.087 0.0208,-0.034 0.0574,-0.049 0.0812,-0.034 0.0239,0.015 0.11625,-0.054 0.2053,-0.1525 l 0.16192,-0.1793 -0.19521,0.1673 -0.19521,0.1674 0.16381,-0.1813 c 0.18894,-0.2091 0.25603,-0.2221 0.38872,-0.076 0.0915,0.1012 0.0858,0.116 -0.13079,0.3369 -0.12459,0.1271 -0.22653,0.2552 -0.22653,0.2847 0,0.1028 0.16443,0.052 0.29084,-0.089 0.0701,-0.079 0.20276,-0.2199 0.29478,-0.3141 0.092,-0.094 0.12968,-0.1506 0.0837,-0.1253 -0.0719,0.039 -0.073,0.033 -0.008,-0.048 0.0418,-0.052 0.0983,-0.08 0.1255,-0.063 0.0272,0.017 0.0494,0 0.0494,-0.028 0,-0.105 0.16148,-0.063 0.2268,0.059 0.0568,0.1062 0.0211,0.1611 -0.34562,0.5302 l -0.40903,0.4118 0.315,0.315 0.31499,0.315 -0.75883,0.828 c -0.41735,0.4554 -0.77916,0.828 -0.80401,0.828 -0.0249,0 -0.0452,-0.099 -0.0452,-0.22 z m 0.12773,-2.2899 c 0.0161,-0.061 0.006,-0.097 -0.0214,-0.08 -0.0278,0.017 -0.0506,0.067 -0.0506,0.1116 0,0.1154 0.0379,0.099 0.072,-0.031 z m -0.0335,-0.4879 c -0.014,-0.054 -0.0255,-0.01 -0.0255,0.098 0,0.1074 0.0115,0.1513 0.0255,0.098 0.014,-0.054 0.014,-0.1415 0,-0.1952 z m 0.24042,2.1959 c 0,-0.012 0.0439,-0.055 0.0976,-0.098 0.0885,-0.069 0.0904,-0.067 0.0211,0.021 -0.0729,0.093 -0.11867,0.1225 -0.11867,0.077 z m -2.50982,-0.8923 c 0,-0.012 0.0439,-0.055 0.0976,-0.098 0.0885,-0.069 0.0904,-0.068 0.0211,0.021 -0.0729,0.093 -0.11866,0.1225 -0.11866,0.077 z"
         id="path316" />
    </g>
  </g>
</svg>
