<?xml version="1.0" encoding="UTF-8" standalone="no"?>
<!-- Created with Inkscape (http://www.inkscape.org/) -->

<svg
   width="10.993079mm"
   height="10.5865mm"
   viewBox="0 0 10.993079 10.5865"
   version="1.1"
   id="svg1"
   xmlns:inkscape="http://www.inkscape.org/namespaces/inkscape"
   xmlns:sodipodi="http://sodipodi.sourceforge.net/DTD/sodipodi-0.dtd"
   xmlns:xlink="http://www.w3.org/1999/xlink"
   xmlns="http://www.w3.org/2000/svg"
   xmlns:svg="http://www.w3.org/2000/svg">
  <sodipodi:namedview
     id="namedview1"
     pagecolor="#505050"
     bordercolor="#eeeeee"
     borderopacity="1"
     inkscape:showpageshadow="0"
     inkscape:pageopacity="0"
     inkscape:pagecheckerboard="0"
     inkscape:deskcolor="#505050"
     inkscape:document-units="mm">
    <inkscape:page
       x="0"
       y="-4.2929376e-22"
       width="10.993079"
       height="10.586499"
       id="page2"
       margin="0"
       bleed="0" />
  </sodipodi:namedview>
  <defs
     id="defs1">
    <filter
       inkscape:collect="always"
       style="color-interpolation-filters:sRGB"
       id="filter257"
       x="-0.13945198"
       y="-0.14637573"
       width="1.278904"
       height="1.2927515">
      <feGaussianBlur
         inkscape:collect="always"
         stdDeviation="0.85511392"
         id="feGaussianBlur257" />
    </filter>
    <radialGradient
       inkscape:collect="always"
       xlink:href="#linearGradient345"
       id="radialGradient344"
       gradientUnits="userSpaceOnUse"
       gradientTransform="matrix(1,0,0,0.9526988,0,-125.74821)"
       cx="-1537.8212"
       cy="-2658.4568"
       fx="-1537.8212"
       fy="-2658.4568"
       r="7.3583512" />
    <linearGradient
       id="linearGradient345"
       inkscape:collect="always">
      <stop
         style="stop-color:#cce5ff;stop-opacity:1;"
         offset="0"
         id="stop344" />
      <stop
         style="stop-color:#3c849b;stop-opacity:1;"
         offset="1"
         id="stop345" />
    </linearGradient>
    <radialGradient
       inkscape:collect="always"
       xlink:href="#linearGradient352"
       id="radialGradient351"
       gradientUnits="userSpaceOnUse"
       gradientTransform="matrix(1,0,0,0.9526988,0,-125.74821)"
       cx="-1537.8212"
       cy="-2658.4568"
       fx="-1537.8212"
       fy="-2658.4568"
       r="7.3583512" />
    <linearGradient
       id="linearGradient352"
       inkscape:collect="always">
      <stop
         style="stop-color:#d5d2d6;stop-opacity:1;"
         offset="0"
         id="stop351" />
      <stop
         style="stop-color:#745783;stop-opacity:1;"
         offset="1"
         id="stop352" />
    </linearGradient>
  </defs>
  <g
     inkscape:label="Layer 1"
     inkscape:groupmode="layer"
     id="layer1"
     transform="translate(-164.4802,-65.875446)">
    <g
       id="g345"
       transform="translate(681.41913,2935.3495)"
       inkscape:export-filename="rune-d.svg"
       inkscape:export-xdpi="96"
       inkscape:export-ydpi="96">
      <g
         id="g344"
         transform="translate(22.077764,-0.25449871)">
        <g
           id="g343"
           transform="translate(25.103078,-23.235864)">
          <g
             id="g342"
             transform="translate(773.19477,-170.50364)">
            <g
               id="g341"
               transform="matrix(0.58407847,0,0,0.58407847,-554.89655,-1111.9396)">
              <path
                 sodipodi:type="star"
                 style="opacity:0.7725;fill:#868686;fill-opacity:1;stroke:none;stroke-width:0.222;stroke-dasharray:none;stroke-dashoffset:0;stroke-opacity:1"
                 id="path339"
                 inkscape:flatsided="true"
                 sodipodi:sides="5"
                 sodipodi:cx="-1537.8085"
                 sodipodi:cy="-2657.73"
                 sodipodi:r1="7.7371378"
                 sodipodi:r2="6.2594757"
                 sodipodi:arg1="0.93716332"
                 sodipodi:arg2="1.5654818"
                 inkscape:rounded="0"
                 inkscape:randomized="0"
                 d="m -1533.2275,-2651.4948 -9.0954,0.048 -2.8566,-8.6353 7.3299,-5.3853 7.3868,5.307 z"
                 inkscape:transform-center-x="0.012706361"
                 inkscape:transform-center-y="-0.726736"
                 transform="translate(189.72879,-9.4164524)" />
              <path
                 sodipodi:type="star"
                 style="opacity:0.7725;fill:#000000;fill-opacity:0.711172;stroke:none;stroke-width:0.222;stroke-dasharray:none;stroke-dashoffset:0;stroke-opacity:1;filter:url(#filter257)"
                 id="path340"
                 inkscape:flatsided="true"
                 sodipodi:sides="5"
                 sodipodi:cx="-1537.8085"
                 sodipodi:cy="-2657.73"
                 sodipodi:r1="7.7371378"
                 sodipodi:r2="6.2594757"
                 sodipodi:arg1="0.93716332"
                 sodipodi:arg2="1.5654818"
                 inkscape:rounded="0"
                 inkscape:randomized="0"
                 d="m -1533.2275,-2651.4948 -9.0954,0.048 -2.8566,-8.6353 7.3299,-5.3853 7.3868,5.307 z"
                 inkscape:transform-center-x="0.012706361"
                 inkscape:transform-center-y="-0.726736"
                 transform="translate(189.72879,-9.4164524)" />
              <path
                 sodipodi:type="star"
                 style="opacity:0.7725;fill:url(#radialGradient344);fill-opacity:1;stroke:none;stroke-width:0.222;stroke-dasharray:none;stroke-dashoffset:0;stroke-opacity:1"
                 id="path341"
                 inkscape:flatsided="true"
                 sodipodi:sides="5"
                 sodipodi:cx="-1537.8085"
                 sodipodi:cy="-2657.73"
                 sodipodi:r1="7.7371378"
                 sodipodi:r2="6.2594757"
                 sodipodi:arg1="0.93716332"
                 sodipodi:arg2="1.5654818"
                 inkscape:rounded="0"
                 inkscape:randomized="0"
                 d="m -1533.2275,-2651.4948 -9.0954,0.048 -2.8566,-8.6353 7.3299,-5.3853 7.3868,5.307 z"
                 inkscape:transform-center-x="0.012706361"
                 inkscape:transform-center-y="-0.726736"
                 transform="translate(189.72879,-9.4164524)" />
            </g>
          </g>
        </g>
      </g>
      <path
         style="fill:#ffffff;stroke-width:0.253382"
         d="m -522.08306,-2860.4108 c -0.0182,-0.018 -0.035,-0.7144 -0.0373,-1.5471 l -0.004,-1.514 -0.99137,-0.9051 c -0.63097,-0.576 -0.97871,-0.9395 -0.95656,-0.9998 0.0245,-0.067 0.007,-0.079 -0.0604,-0.04 -0.0565,0.033 -0.0725,0.03 -0.0393,-0.01 0.0307,-0.034 0.0911,-0.062 0.13408,-0.064 0.043,0 0.0707,-0.039 0.0615,-0.084 -0.0418,-0.2013 0.20869,-0.02 0.95436,0.6933 0.44193,0.4223 0.83412,0.7679 0.87153,0.7679 0.0441,0 0.0631,-0.4472 0.0541,-1.2715 -0.009,-0.7926 0.0113,-1.2872 0.0532,-1.3131 0.037,-0.023 0.14343,0.01 0.23662,0.07 0.13518,0.089 0.16716,0.1609 0.15816,0.3577 -0.006,0.1357 -0.008,0.7927 -0.005,1.46 l 0.006,1.2133 1.00561,0.9255 c 0.55309,0.509 1.00561,0.9532 1.00561,0.9871 0,0.091 -0.19256,0.2674 -0.26368,0.2418 -0.0553,-0.02 -0.71355,-0.6058 -1.44065,-1.2821 l -0.27337,-0.2542 -0.0182,1.2692 -0.0182,1.2693 -0.20008,0.029 c -0.11004,0.016 -0.21499,0.014 -0.23322,0 z m 0.63783,-3.1599 c -0.0796,-0.05 -0.0831,-0.08 -0.0168,-0.1465 0.0458,-0.046 0.0828,-0.1149 0.0822,-0.1536 -5.1e-4,-0.039 -0.033,-0.025 -0.0721,0.03 -0.0471,0.067 -0.0632,0.071 -0.0476,0.012 0.0129,-0.049 0.0408,-0.079 0.0618,-0.067 0.0604,0.034 0.26215,-0.1552 0.22651,-0.2129 -0.0176,-0.028 0.0204,-0.093 0.0845,-0.1432 0.1055,-0.083 0.10783,-0.08 0.0246,0.026 -0.19049,0.2429 0.0374,0.1044 0.34648,-0.2105 l 0.32151,-0.3276 -0.32151,-0.3036 c -0.17683,-0.1669 -0.4105,-0.3856 -0.51927,-0.486 -0.14286,-0.1318 -0.19777,-0.2444 -0.19777,-0.4056 0,-0.1228 0.0173,-0.2405 0.0385,-0.2617 0.0212,-0.021 0.15812,0.076 0.30428,0.2156 0.14615,0.1398 0.48271,0.4494 0.7479,0.688 0.2652,0.2385 0.47369,0.4664 0.46333,0.5063 -0.0199,0.077 -1.33177,1.3065 -1.39173,1.3048 -0.0192,0 -0.08,-0.03 -0.13496,-0.064 z"
         id="path338" />
    </g>
    <g
       id="g352"
       transform="translate(690.87144,2935.286)">
      <g
         id="g347"
         transform="matrix(0.58407848,0,0,0.58407848,266.49706,-1305.87)">
        <path
           sodipodi:type="star"
           style="opacity:0.7725;fill:#868686;fill-opacity:1;stroke:none;stroke-width:0.222;stroke-dasharray:none;stroke-dashoffset:0;stroke-opacity:1"
           id="path345"
           inkscape:flatsided="true"
           sodipodi:sides="5"
           sodipodi:cx="-1537.8085"
           sodipodi:cy="-2657.73"
           sodipodi:r1="7.7371378"
           sodipodi:r2="6.2594757"
           sodipodi:arg1="0.93716332"
           sodipodi:arg2="1.5654818"
           inkscape:rounded="0"
           inkscape:randomized="0"
           d="m -1533.2275,-2651.4948 -9.0954,0.048 -2.8566,-8.6353 7.3299,-5.3853 7.3868,5.307 z"
           inkscape:transform-center-x="0.012706361"
           inkscape:transform-center-y="-0.726736"
           transform="translate(189.72879,-9.4164524)" />
        <path
           sodipodi:type="star"
           style="opacity:0.7725;fill:#000000;fill-opacity:0.711172;stroke:none;stroke-width:0.222;stroke-dasharray:none;stroke-dashoffset:0;stroke-opacity:1;filter:url(#filter257)"
           id="path346"
           inkscape:flatsided="true"
           sodipodi:sides="5"
           sodipodi:cx="-1537.8085"
           sodipodi:cy="-2657.73"
           sodipodi:r1="7.7371378"
           sodipodi:r2="6.2594757"
           sodipodi:arg1="0.93716332"
           sodipodi:arg2="1.5654818"
           inkscape:rounded="0"
           inkscape:randomized="0"
           d="m -1533.2275,-2651.4948 -9.0954,0.048 -2.8566,-8.6353 7.3299,-5.3853 7.3868,5.307 z"
           inkscape:transform-center-x="0.012706361"
           inkscape:transform-center-y="-0.726736"
           transform="translate(189.72879,-9.4164524)" />
        <path
           sodipodi:type="star"
           style="opacity:0.7725;fill:url(#radialGradient351);fill-opacity:1;stroke:none;stroke-width:0.222;stroke-dasharray:none;stroke-dashoffset:0;stroke-opacity:1"
           id="path347"
           inkscape:flatsided="true"
           sodipodi:sides="5"
           sodipodi:cx="-1537.8085"
           sodipodi:cy="-2657.73"
           sodipodi:r1="7.7371378"
           sodipodi:r2="6.2594757"
           sodipodi:arg1="0.93716332"
           sodipodi:arg2="1.5654818"
           inkscape:rounded="0"
           inkscape:randomized="0"
           d="m -1533.2275,-2651.4948 -9.0954,0.048 -2.8566,-8.6353 7.3299,-5.3853 7.3868,5.307 z"
           inkscape:transform-center-x="0.012706361"
           inkscape:transform-center-y="-0.726736"
           transform="translate(189.72879,-9.4164524)" />
      </g>
      <path
         style="fill:#ffffff;stroke-width:0.269721"
         d="m -521.00413,-2860.3902 c -0.10902,-0.1206 -0.12208,-0.3747 -0.12683,-2.4677 -0.003,-1.3173 -0.033,-2.3334 -0.069,-2.3334 -0.0351,0 -0.10567,0.056 -0.15696,0.1249 -0.14899,0.1994 -1.1776,1.0882 -1.25954,1.0882 -0.0409,0 -0.12575,-0.072 -0.18842,-0.1606 -0.10893,-0.1535 -0.10311,-0.1699 0.13289,-0.3746 0.13574,-0.1178 0.54647,-0.4865 0.91272,-0.8193 0.36626,-0.333 0.60169,-0.5257 0.52319,-0.4283 l -0.14273,0.1771 0.15051,-0.1268 c 0.11605,-0.098 0.14388,-0.1871 0.12153,-0.3899 -0.016,-0.1447 -0.0432,-0.2773 -0.0605,-0.2946 -0.0173,-0.017 -0.20171,0.126 -0.4097,0.3185 -0.70141,0.6494 -0.97289,0.8854 -1.0183,0.8854 -0.0248,0 -0.10271,-0.071 -0.17302,-0.1579 -0.12491,-0.1542 -0.12281,-0.1633 0.0916,-0.3905 0.1207,-0.1281 0.23285,-0.2193 0.24921,-0.203 0.0164,0.016 0.10942,-0.065 0.20675,-0.1805 0.0973,-0.1157 0.21113,-0.1892 0.25286,-0.1634 0.0435,0.027 0.0551,0.014 0.0271,-0.032 -0.0472,-0.077 0.22132,-0.2747 0.32996,-0.2438 0.0294,0.01 0.0455,-0.025 0.0357,-0.074 -0.01,-0.049 0.0223,-0.081 0.0713,-0.071 0.0491,0.01 0.0812,-0.023 0.0713,-0.071 -0.01,-0.049 0.0247,-0.08 0.0767,-0.069 0.0519,0.011 0.0751,-0.012 0.0515,-0.05 -0.0556,-0.09 0.18748,-0.2194 0.41244,-0.2194 0.12253,0 0.18733,0.049 0.21506,0.1606 0.0218,0.088 0.0423,1.5608 0.0454,3.2724 0.005,2.8959 -0.004,3.1227 -0.12282,3.2704 -0.12548,0.155 -0.13147,0.1556 -0.25009,0.024 z m -0.005,-1.856 c -0.0181,-0.07 -0.0341,-0.03 -0.0355,0.087 -0.002,0.1178 0.0134,0.1746 0.0329,0.1263 0.0196,-0.049 0.0207,-0.1447 0.003,-0.2141 z m -0.82535,-2.9273 c 0.0887,-0.1132 0.0862,-0.1157 -0.027,-0.027 -0.0687,0.054 -0.12489,0.11 -0.12489,0.1249 0,0.059 0.0586,0.021 0.15183,-0.098 z m 0.18067,4.1034 c -0.14774,-0.1668 -0.51582,-0.5565 -0.81794,-0.8661 -0.30213,-0.3095 -0.50919,-0.5404 -0.46012,-0.5131 0.0491,0.027 0.0892,0.014 0.0892,-0.03 0,-0.094 0.54533,-0.6434 0.99115,-0.9992 0.17209,-0.1375 0.35439,-0.29 0.4051,-0.339 0.14504,-0.1403 0.17375,-0.1089 0.17375,0.1904 0,0.2563 -0.0427,0.3181 -0.51738,0.7472 l -0.5174,0.4677 0.5174,0.5212 c 0.47846,0.4819 0.51738,0.5437 0.51738,0.8226 0,0.166 -0.0253,0.3017 -0.0563,0.3017 -0.0309,0 -0.17715,-0.1365 -0.32488,-0.3034 z m 1.12828,0.2354 c 0.0231,-0.037 0.045,-0.1898 0.0487,-0.339 0.005,-0.2281 0.0694,-0.3354 0.40273,-0.678 0.21778,-0.2238 0.42752,-0.3875 0.46608,-0.3637 0.0386,0.023 0.0487,0.01 0.0225,-0.033 -0.0262,-0.042 0.005,-0.087 0.0692,-0.1001 0.0802,-0.016 -0.0475,-0.1658 -0.40947,-0.4796 -0.4729,-0.41 -0.53019,-0.4878 -0.56521,-0.7672 -0.0403,-0.3219 -0.003,-0.3742 0.15911,-0.2216 0.052,0.049 0.3673,0.33 0.70054,0.6244 0.8067,0.7127 0.79993,0.7058 0.77289,0.7768 -0.0501,0.1313 -1.54587,1.6496 -1.62519,1.6496 -0.0462,0 -0.065,-0.031 -0.0419,-0.068 z m 0.35975,-0.7885 0.14197,-0.1784 -0.16057,0.136 c -0.0883,0.075 -0.16057,0.1684 -0.16057,0.2081 0,0.04 0.008,0.059 0.0186,0.042 0.0102,-0.016 0.0825,-0.1101 0.16057,-0.2082 z"
         id="path351" />
    </g>
  </g>
</svg>
